<?xml version="1.0" encoding="utf-8"?>
<!-- Generator: Adobe Illustrator 24.3.0, SVG Export Plug-In . SVG Version: 6.00 Build 0)  -->
<svg version="1.1" id="Layer_1" xmlns="http://www.w3.org/2000/svg" xmlns:xlink="http://www.w3.org/1999/xlink" x="0px" y="0px"
	 viewBox="0 0 85 85" style="enable-background:new 0 0 85 85;" xml:space="preserve">
<style type="text/css">
	.st0{fill:#08c78f;}
</style>
<path class="st0" d="M23.3,42.4c0,0-3,0.8-4.9,5c0,0-2.3-10.7,16.7-24.5l-7.9-8.5c0,0-22.9,14.1-22.1,36.2
	C5.8,72.9,25.6,71,29.1,69.4c3.5-1.6,10.8-3.7,9.8-17.3C37,39.5,23.3,42.4,23.3,42.4z"/>
<path class="st0" d="M79.9,52.2c-1.9-12.7-15.6-9.7-15.6-9.7s-3,0.8-4.9,5c0,0-2.3-10.7,16.7-24.5l-7.9-8.5c0,0-22.9,14.1-22.1,36.2
	C46.8,72.9,66.6,71,70.1,69.4C73.6,67.8,81,65.7,79.9,52.2z"/>
</svg>
